<svg width="643" height="769" viewBox="0 0 643 769" fill="none" xmlns="http://www.w3.org/2000/svg">
<rect width="643" height="769" fill="#343434"/>
<circle cx="321.5" cy="384.5" r="153.5" fill="#5C5C5C"/>
<line x1="95" y1="384.5" x2="549" y2="384.5" stroke="url(#paint0_linear_1_32)"/>
<path d="M484.399 547.399C485.44 546.357 485.44 544.669 484.399 543.628C483.357 542.586 481.669 542.586 480.628 543.628C479.586 544.669 479.586 546.357 480.628 547.399C481.669 548.44 483.357 548.44 484.399 547.399ZM163.372 226.372C164.414 225.331 164.414 223.643 163.372 222.601C162.331 221.56 160.643 221.56 159.601 222.601C158.56 223.643 158.56 225.331 159.601 226.372C160.643 227.414 162.331 227.414 163.372 226.372ZM482.867 545.16L161.84 224.133L161.133 224.84L482.16 545.867L482.867 545.16Z" fill="url(#paint1_linear_1_32)"/>
<path d="M159.248 546.559C160.289 547.6 161.977 547.6 163.019 546.559C164.06 545.517 164.06 543.829 163.019 542.787C161.977 541.746 160.289 541.746 159.248 542.787C158.206 543.829 158.206 545.517 159.248 546.559ZM480.274 225.532C481.315 226.573 483.004 226.573 484.045 225.532C485.087 224.491 485.087 222.802 484.045 221.761C483.004 220.719 481.315 220.719 480.274 221.761C479.233 222.802 479.233 224.491 480.274 225.532ZM161.487 545.026L482.513 224L481.806 223.293L160.78 544.319L161.487 545.026Z" fill="url(#paint2_linear_1_32)"/>
<line x1="321.5" y1="612" x2="321.5" y2="158" stroke="url(#paint3_linear_1_32)"/>
<circle cx="322" cy="385" r="56" fill="#171717"/>
<defs>
<linearGradient id="paint0_linear_1_32" x1="95" y1="385.5" x2="549" y2="385.5" gradientUnits="userSpaceOnUse">
<stop stop-color="white" stop-opacity="0.2"/>
<stop offset="0.505" stop-color="white"/>
<stop offset="1" stop-color="white" stop-opacity="0.2"/>
</linearGradient>
<linearGradient id="paint1_linear_1_32" x1="482.867" y1="545.16" x2="161.84" y2="224.133" gradientUnits="userSpaceOnUse">
<stop stop-color="white" stop-opacity="0.1"/>
<stop offset="0.501" stop-color="#7E7E7E"/>
<stop offset="1" stop-color="white" stop-opacity="0.1"/>
</linearGradient>
<linearGradient id="paint2_linear_1_32" x1="161.487" y1="545.026" x2="482.513" y2="224" gradientUnits="userSpaceOnUse">
<stop stop-color="white" stop-opacity="0.1"/>
<stop offset="0.531" stop-color="#808080"/>
<stop offset="1" stop-color="white" stop-opacity="0.1"/>
</linearGradient>
<linearGradient id="paint3_linear_1_32" x1="322.5" y1="158" x2="322.5" y2="612" gradientUnits="userSpaceOnUse">
<stop stop-color="white" stop-opacity="0.1"/>
<stop offset="0.495" stop-color="white"/>
<stop offset="1" stop-color="white" stop-opacity="0.1"/>
</linearGradient>
</defs>
</svg>
